# xmcd
#
# Track frame offsets:
#	150
#	25695
#	47605
#	71322
#	93420
#	115135
#	133937
#	153787
#	175945
#	196570
#	220120
#	243660
#	267882
#	287947
#
# Disc length: 4146 seconds
#
# Revision: 4
# Processed by: cddbd v1.5PL3 Copyright (c) Steve Scherf et al.
# Submitted via: CDex 1.50Beta5
#
DISCID=be10300e
DTITLE=サザンオールスターズ - バラッド3〜the album of LOVE〜 Disc 2
DYEAR=2000
DGENRE=Rock
TTITLE0=愛の言霊〜Spiritual Message〜
TTITLE1=BLUE HEAVEN
TTITLE2=あなただけを〜Summer Hertbreak〜
TTITLE3=MOON LIGHT LOVER
TTITLE4=愛無き愛児〜Before The Storm〜
TTITLE5=心を込めて花束を
TTITLE6=唐人物語
TTITLE7=SAUDADE〜真冬の蜃気楼〜
TTITLE8=湘南SEPTEMBER
TTITLE9=TSUNAMI
TTITLE10=夏の日のドラマ
TTITLE11=LOVE AFFAIR〜秘密のデート〜
TTITLE12=SEA SIDE WOMAN BLUES
TTITLE13=素敵な夢を叶えましょう
EXTD=
EXTT0=
EXTT1=
EXTT2=
EXTT3=
EXTT4=
EXTT5=
EXTT6=
EXTT7=
EXTT8=
EXTT9=
EXTT10=
EXTT11=
EXTT12=
EXTT13=
PLAYORDER=
